<!DOCTYPE svg PUBLIC "-//W3C//DTD SVG 1.1//EN" "http://www.w3.org/Graphics/SVG/1.1/DTD/svg11.dtd">
<!-- Uploaded to: SVG Repo, www.svgrepo.com, Transformed by: SVG Repo Mixer Tools -->
<svg fill="#45b3e0" width="800px" height="800px" viewBox="0 0 1920 1920" xmlns="http://www.w3.org/2000/svg" stroke="#45b3e0">
<g id="SVGRepo_bgCarrier" stroke-width="0"/>
<g id="SVGRepo_tracerCarrier" stroke-linecap="round" stroke-linejoin="round"/>
<g id="SVGRepo_iconCarrier"> <path d="M1800 1320v420c0 33-27 60-60 60h-420v-480h480Zm-600 0v480H720v-480h480Zm-600 0v480H180c-33 0-60-27-60-60v-420h480Zm1200-600v480h-480V720h480Zm-600 0v480H720V720h480Zm-600 0v480H120V720h480Zm1140-600c33 0 60 27 60 60v420h-480V120h420Zm-540 0v480H720V120h480Zm-600 0v480H120V180c0-33 27-60 60-60h420ZM1740 0H180C80.76 0 0 80.76 0 180v1560c0 99.24 80.76 180 180 180h1560c99.24 0 180-80.76 180-180V180c0-99.24-80.76-180-180-180Z" fill-rule="evenodd"/> </g>
</svg>